PathFileType	4	(X/Y/Z)	Patient4_TMGait_0pt6_02_left_46.trc.trc
DataRate	CameraRate	NumFrames	NumMarkers	Units	OrigDataRate	OrigDataStartFrame	OrigNumFrames
84.337349397591	84.337349397591	6	33	mm	84.337349397591	36	       141
Frame#	Time	Sacral			L.Shoulder			Chest			R.Shoulder			Neck			R.ASIS			L.ASIS			R.Thigh.Superior			R.Thigh.Lateral			R.Thigh.Inferior			R.Patella			L.Thigh.Superior			L.Thigh.Lateral			L.Thigh.Inferior			L.Patella			L.Shank.Superior			L.Shank.Lateral			L.Shank.Inferior			R.Shank.Superior			R.Shank.Lateral			R.Shank.Inferior			R.Heel			R.Midfoot.Superior			R.Midfoot.Lateral			R.Toe			L.Heel			L.Midfoot.Lateral			L.Midfoot.Superior			L.Toe			L.Elbow			L.Wrist			R.Elbow			R.Wrist			
		X1	Y1	Z1	X2	Y2	Z2	X3	Y3	Z3	X4	Y4	Z4	X5	Y5	Z5	X6	Y6	Z6	X7	Y7	Z7	X8	Y8	Z8	X9	Y9	Z9	X10	Y10	Z10	X11	Y11	Z11	X12	Y12	Z12	X13	Y13	Z13	X14	Y14	Z14	X15	Y15	Z15	X16	Y16	Z16	X17	Y17	Z17	X18	Y18	Z18	X19	Y19	Z19	X20	Y20	Z20	X21	Y21	Z21	X22	Y22	Z22	X23	Y23	Z23	X24	Y24	Z24	X25	Y25	Z25	X26	Y26	Z26	X27	Y27	Z27	X28	Y28	Z28	X29	Y29	Z29	X30	Y30	Z30	X31	Y31	Z31	X32	Y32	Z32	X33	Y33	Z33	

36	56.555000000000	844.810419420166	999.557381466298	489.682198205372	990.849622990487	1424.506385992873	293.091981809443	1114.760996238658	1354.548054026005	438.194738404779	1054.437939342806	1431.102334600242	619.422357878452	1006.781654063581	1486.333580120114	443.550562161309	1075.301727645192	929.652186029037	587.622229162069	1044.915393159492	951.429404143757	314.325006423946	1082.020303863868	715.031925312235	561.679706160459	985.377301683868	616.603321553750	625.798435847427	1051.073405234042	550.408643128234	546.747660347259	1030.729743209491	448.301739712430	559.576493974485	1122.263605234077	765.855369684287	346.765366507577	1054.548546482113	636.643271147235	284.769453227184	1154.475170023949	574.369474882471	344.059310968232	1166.911152695398	504.512958520858	350.841169801496	1149.869769431128	429.792939818227	343.046065185497	1075.106406253948	303.390845357051	296.905758444011	1149.269511810854	201.410422274336	362.963798351529	961.206411873036	379.433722559678	566.106625998610	850.395118799327	320.808748113392	629.772606162256	846.029720788502	214.766295692191	572.178444301936	653.849410105196	106.223954229830	547.731668424390	832.793239908397	106.456659434478	582.866375913737	731.000723501503	72.442877668701	619.887458574369	929.541594135615	34.962558582520	608.867144560921	1044.109601866481	38.054727432740	412.027998354137	1114.848787526005	35.988103573488	328.077369954857	1196.232052807148	99.954010581511	350.156156631677	1324.938198280751	52.145308688456	319.113550053028	871.788972638861	1091.413231328403	186.627737569898	847.148306230727	834.667768963429	231.141348079510	1188.725940925899	1122.928538430349	743.281527558622	1366.338600127623	1253.989767669483	626.152153499510	
37	56.566857142857	844.853297621479	1000.867444438269	487.152839779029	991.761581615261	1425.510537692300	290.584903426993	1114.993813172978	1356.019375117891	436.418101610442	1053.707275980555	1432.967402231935	617.170011341915	1006.766861903579	1487.653581523852	440.919656159520	1074.940344883493	931.000888481494	586.008342054579	1045.808117092985	952.928900006489	312.790279495791	1086.014687859120	716.986585572417	560.742143221147	991.530909677913	616.778040017855	624.672898856558	1059.709395980384	551.392782500859	546.373758452817	1040.447217005406	447.548610082947	560.365811371903	1121.682015235907	765.521393013445	344.333827767038	1051.815202579977	637.038740459763	283.380375705944	1151.087508482288	573.746894466956	342.534812919602	1162.698366518607	504.114184409484	349.861140743810	1145.299164365125	429.495314470019	342.044139133462	1069.634739528175	303.523989141233	296.260296313169	1142.987168804534	201.199966431429	362.599089768949	968.474934876318	379.963380946783	566.034539658165	855.062054831657	325.469938233635	628.684013189932	848.178916958720	219.104337698831	571.898855570519	652.636416501728	118.630088184308	546.404905829678	831.103729185636	109.496152653327	582.644212889790	727.486435629293	80.910777425956	618.931278989178	922.884014945249	33.980628306553	608.753696850366	1037.024386814756	37.953019939744	411.923367549961	1107.752834228075	35.932733210437	327.939023887096	1189.016312564169	100.088433786154	350.029567984610	1317.781460087031	52.555105435434	319.033024847597	880.010714165044	1089.557719436556	182.729698375824	862.373445609628	831.966017886303	224.812610136757	1179.165831958301	1120.675879994402	742.573678198367	1362.634259011292	1243.917904792632	626.153846993458	
38	56.578714285714	844.746939278028	1002.037384077459	484.684668031733	992.767970024065	1426.365863457804	288.080815061533	1115.119039216136	1357.396647446436	434.820111687704	1052.633347303948	1434.733664611222	615.008420839201	1006.607308133170	1488.850695871056	438.309659910965	1074.404932226581	932.234975585413	584.592963716103	1046.591461869084	954.317675102510	311.480875533480	1090.335043376189	719.159540260560	560.020123524856	998.261359215938	617.034264532579	623.782309196774	1069.010767895437	552.641769841929	546.240707170321	1050.916224824385	447.132772056102	561.241734312587	1120.670002101582	764.879636186750	342.000909670711	1048.730221984725	637.343788514809	281.967320586784	1147.254112699174	573.013300204184	341.099539457828	1158.009735796260	503.607673964892	348.831798981347	1140.300518822661	429.126042010809	340.979534139990	1063.827585694093	303.510859430791	295.608731866117	1136.523401823573	200.945861227686	362.198460928308	976.628090352290	380.721995279420	566.009155292255	860.719258688118	330.446508512513	627.567619681595	851.208212291366	223.925929449170	571.493461093600	652.604926454683	132.043939449719	544.715534192246	830.115322320033	113.246678062800	582.265491758464	724.808466691871	90.436074651573	617.734967512673	916.594999843878	33.048853290587	608.734576187967	1029.904282229265	37.858087324843	411.868314305450	1100.611581991059	35.835339380890	327.838840201189	1181.814470215985	100.122851974392	349.929909463711	1310.620408279846	52.769580250352	318.982044807432	888.648583999458	1087.705927733988	178.712397792874	878.545881619263	829.449711910341	218.347494186306	1168.907094567185	1118.545118399347	741.849120191672	1358.679272502802	1232.594138094982	626.233546404438	
39	56.590571428571	844.483448168789	1003.034966363087	482.314728962838	993.880216380922	1427.031959985604	285.611698556049	1115.156249664848	1358.618853654723	433.423326404159	1051.265358506683	1436.347068849196	612.966657627849	1006.338346515739	1489.896412331617	435.759991107416	1073.698010343471	933.302890686410	583.357152546304	1047.215462706789	955.588075211955	310.352995975628	1094.889422192494	721.556604053792	559.436448143528	1005.504348471049	617.420213285783	623.107249453408	1078.837603754926	554.210002871523	546.284155805696	1062.038316299856	447.115433635319	562.140679538812	1119.243433453007	764.039436830017	339.820662141805	1045.408797688966	637.622405013994	280.499716035553	1143.071635538956	572.239512211989	339.721346587591	1152.937928310617	503.036324796277	347.713830618086	1134.964402848111	428.712187058309	339.835984648443	1057.776719400303	303.390780854996	294.886127733576	1129.921710184547	200.667344289115	361.742737903310	985.579666684794	381.745031826317	565.997284162922	867.326647507706	335.702345784128	626.427290276520	855.109946669225	229.206920703002	570.954368719257	653.830945927759	146.223140686406	542.693651762168	829.903891945575	117.749539839269	581.739153033069	723.110359913403	100.894294358186	616.322049784904	910.890299351084	32.335316469094	608.843319828937	1022.756613517564	37.777930877258	411.835044318714	1093.437742123964	35.708388193247	327.753933649378	1174.632306340201	100.078835450492	349.836677182278	1303.463802717831	52.821160710469	318.951793092110	897.722609960167	1085.852679347685	174.611172798824	895.582702278142	827.157448168379	211.820980194456	1158.038641652756	1116.502480165038	741.121502591151	1354.364357996214	1220.007177929774	626.477673825217	
40	56.602428571429	844.056975526376	1003.847913867863	480.068362646449	995.089163037667	1427.491210162355	283.214410537897	1115.120536647779	1359.647078672713	432.239041182629	1049.664304042220	1437.771991127693	611.069595113948	1005.998066804588	1490.779541340969	433.309840008845	1072.826151815283	934.177006774551	582.271728736416	1047.639313145440	956.744510347461	309.353068329400	1099.571451347592	724.190605397079	558.902628764492	1013.171981416829	617.999124038354	622.617503145798	1089.031114418345	556.161230285357	546.431968281281	1073.704011295974	447.563714431645	563.007369877726	1117.441718835863	763.106333145502	337.816685899261	1041.931693612275	637.915673760207	278.969238505628	1138.629239993403	571.475004597603	338.365177917150	1147.577522857227	502.436864546776	346.489311764207	1129.378585604925	428.278623948449	338.610326320494	1051.556816477949	303.203830055703	294.066970699824	1123.222049729704	200.382110875647	361.224220287801	995.232298525864	383.074967549920	565.977284608036	874.824185211939	341.197969252379	625.277612395237	859.877514599459	234.903174472713	570.296063018330	656.362462234919	160.847207230250	540.403538400072	830.566942872112	122.991136348570	581.091746927299	722.538974902586	112.078368750271	614.741407338536	906.031898700818	32.047192408843	609.102903121221	1015.590265433500	37.715823367387	411.802176511849	1086.243965383043	35.564620991921	327.667530727514	1167.469830995778	99.983727697905	349.733831593999	1296.315985216689	52.757708476789	318.931409628061	907.263072767833	1084.008713807992	170.466765522034	913.400253594795	825.132087166363	205.306761534223	1146.640677094263	1114.520390071058	740.397828363208	1349.580241345837	1206.141927120656	626.992220093699	
41	56.614285714286	843.464503270402	1004.484892250225	477.957886431751	996.367021060923	1427.749386220815	280.926927422254	1115.020713335566	1360.467262580901	431.266900944591	1047.896521358719	1438.992427861617	609.336374281815	1005.622946445140	1491.505039107653	430.994070603137	1071.800050665646	934.855060498647	581.300810833727	1047.836386707738	957.800298208010	308.428673436205	1104.271909082019	727.077944241623	558.330403493789	1021.157634281644	618.841083914632	622.273114492134	1099.426637122009	558.560432882752	546.611814046286	1085.795726746929	448.545229612651	563.795169266061	1115.325564235263	762.168551128011	335.980956334171	1038.342890994451	638.242178953620	277.390168275721	1133.999928255869	570.747203166135	337.001428903011	1142.013445275420	501.837018497442	345.163121276237	1123.618817017367	427.845745841707	337.313110269257	1045.220910221420	302.986250419974	293.162301021524	1116.457834585775	200.104334921030	360.646830065622	1005.483804990133	384.756816508807	565.939085778679	883.137825624138	346.887327105894	624.144015624515	865.508126389714	240.946274618914	569.555086962082	660.215152329674	175.533729084915	537.945719684173	832.220083287951	128.895818003334	580.365903124115	723.235766613374	123.704830559367	613.067628456733	902.318416927339	32.401566748298	609.519750538466	1008.413665567200	37.671365636692	411.756440479588	1079.040859511344	35.415442505718	327.570192122369	1160.323009157988	99.864577893921	349.611937982819	1289.177288285268	52.629848797503	318.910672049431	917.300041796027	1082.205606941827	166.324709069651	931.913760110396	823.424956904918	198.876114898415	1134.783162730320	1112.585602106547	739.676306437402	1344.215858854018	1190.986213300629	627.893409457300	
